# xmcd
#
# Track frame offsets: 
#        150
#        16228
#        40192
#        58097
#        72747
#        92020
#        130832
#        151236
#
# Disc length: 2426 seconds
#
# Revision: 0
# Processed by: cddbd v1.5.2PL0 Copyright (c) Steve Scherf et al.
# Submitted via: ExactAudioCopy v0.95b3
#
DISCID=66097808
DTITLE=B.B. King  - L.A. Midnight-To Know You Is To Love You(1972-73)(
DTITLE=2009 BGO Rem.) Disc 2  
DYEAR=1900
DGENRE=
TTITLE0=I Like To Live The Love
TTITLE1=Respect Yourself
TTITLE2=Who Are You
TTITLE3=Love
TTITLE4=I Can´t Leave
TTITLE5=To Know You Is To Love You
TTITLE6=Oh To Me
TTITLE7=Thank You For Loving The Blues
EXTD=
EXTT0=
EXTT1=
EXTT2=
EXTT3=
EXTT4=
EXTT5=
EXTT6=
EXTT7=
PLAYORDER=
